<svg width="1096" height="574.74" xmlns="http://www.w3.org/2000/svg" data-name="Layer 1">
 <defs>
  <pattern patternTransform="matrix(1,0,0,1,-104,-325.260009765625)" viewBox="0 0 36.88 49.48" patternUnits="userSpaceOnUse" height="49.48" width="36.88" data-name="New Pattern 3" id="ad310e25-2b04-44c8-bb7b-982389166780">
   <rect id="svg_1" fill="none" height="49.48" width="36.88"/>
   <path id="svg_2" d="m4.33,13.19c4.5,0 4.51,-7 0,-7s-4.52,7 0,7z"/>
   <path id="svg_3" d="m4.51,17.16c4.51,0 4.52,-7 0,-7s-4.51,7 0,7z"/>
   <path id="svg_4" d="m4.51,20.94c4.51,0 4.52,-7 0,-7s-4.51,7 0,7z"/>
   <path id="svg_5" d="m3.38,24.72c4.51,0 4.51,-7 0,-7s-4.51,7 0,7z"/>
   <path id="svg_6" d="m1.09,28.29l0.2,0.38a3.52,3.52 0 0 0 4.78,1.25a3.58,3.58 0 0 0 1.26,-4.79l-0.19,-0.37a3.52,3.52 0 0 0 -4.79,-1.26a3.59,3.59 0 0 0 -1.26,4.79z"/>
   <path id="svg_7" d="m1.49,30.1l0.18,0.57a3.73,3.73 0 0 0 1.61,2.09a3.59,3.59 0 0 0 2.7,0.35a3.54,3.54 0 0 0 2.44,-4.31l-0.18,-0.56a3.68,3.68 0 0 0 -1.61,-2.1a3.61,3.61 0 0 0 -2.69,-0.35a3.56,3.56 0 0 0 -2.45,4.31z"/>
   <path id="svg_8" d="m1.58,33.88l0,0.38a3.54,3.54 0 0 0 3.5,3.5a3.56,3.56 0 0 0 3.5,-3.5l0,-0.38a3.54,3.54 0 0 0 -3.5,-3.5a3.57,3.57 0 0 0 -3.5,3.5z"/>
   <path id="svg_9" d="m4.89,42.3c4.51,0 4.51,-7 0,-7s-4.51,7 0,7z"/>
   <path id="svg_10" d="m1.77,42l0,0.19a3.54,3.54 0 0 0 3.5,3.5a3.56,3.56 0 0 0 3.5,-3.5l0,-0.19a3.54,3.54 0 0 0 -3.5,-3.5a3.56,3.56 0 0 0 -3.5,3.5z"/>
   <path id="svg_11" d="m6,49.29c4.5,0 4.51,-7 0,-7s-4.52,7 0,7z"/>
   <path id="svg_12" d="m10,14.14c4.5,0 4.51,-7 0,-7s-4.52,7 0,7z"/>
   <path id="svg_13" d="m6.59,20.94c4.51,0 4.52,-7 0,-7s-4.51,7 0,7z"/>
   <path id="svg_14" d="m8.48,27c4.51,0 4.51,-7 0,-7s-4.51,7 0,7z"/>
   <path id="svg_15" d="m8.48,29.26c4.51,0 4.51,-7 0,-7s-4.51,7 0,7z"/>
   <path id="svg_16" d="m14.91,33.79c4.5,0 4.51,-7 0,-7s-4.51,7 0,7z"/>
   <path id="svg_17" d="m9.81,38.52c4.5,0 4.51,-7 0,-7s-4.52,7 0,7z"/>
   <path id="svg_18" d="m10.56,45.13c4.51,0 4.51,-7 0,-7s-4.51,7 0,7z"/>
   <path id="svg_19" d="m10.56,49.48c4.51,0 4.51,-7 0,-7s-4.51,7 0,7z"/>
   <path id="svg_20" d="m12.83,18.12c2.57,0 2.58,-4 0,-4s-2.58,4 0,4z"/>
   <path id="svg_21" d="m13,20.39c2.57,0 2.58,-4 0,-4s-2.58,4 0,4z"/>
   <path id="svg_22" d="m13.1,21l0,0.19a2,2 0 0 0 4,0l0,-0.19a2,2 0 0 0 -4,0z"/>
   <path id="svg_23" d="m15.1,25.87c2.57,0 2.58,-4 0,-4s-2.58,4 0,4z"/>
   <path id="svg_24" d="m16.61,11.07a1,1 0 0 0 0,-2a1,1 0 0 0 0,2z"/>
   <path id="svg_25" d="m21.71,16.55a1,1 0 0 0 0,-2a1,1 0 0 0 0,2z"/>
   <path id="svg_26" d="m16.85,8.94l0,-0.38a1,1 0 0 0 -2,0l0,0.38a1,1 0 0 0 2,0z"/>
   <path id="svg_27" d="m16.48,4.78l0,-0.19a1,1 0 0 0 -2,0l0,0.19a1,1 0 0 0 2,0z"/>
   <path id="svg_28" d="m15.48,2a1,1 0 0 0 0,-2a1,1 0 0 0 0,2z"/>
   <path id="svg_29" d="m10.56,2a1,1 0 0 0 0,-2a1,1 0 0 0 0,2z"/>
   <path id="svg_30" d="m10.37,4.65a1,1 0 0 0 0,-2a1,1 0 0 0 0,2z"/>
   <path id="svg_31" d="m7.35,6.16a1,1 0 0 0 0,-2a1,1 0 0 0 0,2z"/>
   <path id="svg_32" d="m11.88,7.1l0.38,0a1,1 0 0 0 0,-2l-0.38,0a1,1 0 0 0 0,2z"/>
   <path id="svg_33" d="m13.28,11l0.57,1.32a1,1 0 0 0 1.37,0.36a1,1 0 0 0 0.36,-1.37l-0.58,-1.31a1,1 0 0 0 -1.37,-0.36a1,1 0 0 0 -0.35,1.36z"/>
   <path id="svg_34" d="m18.44,19.33l0,0.19a1,1 0 0 0 2,0l0,-0.19a1,1 0 0 0 -2,0z"/>
   <path id="svg_35" d="m20.68,24.93l0.19,0.38c0.57,1.15 2.3,0.14 1.72,-1l-0.19,-0.38c-0.57,-1.15 -2.3,-0.14 -1.72,1z"/>
   <path id="svg_36" d="m22.13,29.38a2.48,2.48 0 0 0 -0.84,1.86a1,1 0 0 0 2,0a0.56,0.56 0 0 1 0.25,-0.44a1,1 0 0 0 0,-1.42a1,1 0 0 0 -1.41,0z"/>
   <path id="svg_37" d="m20.32,33.41l-0.54,1.71c-0.38,1.23 1.55,1.76 1.93,0.53l0.54,-1.71c0.38,-1.23 -1.55,-1.76 -1.93,-0.53z"/>
   <path id="svg_38" d="m19.44,37l-0.19,0a1,1 0 0 0 0,2l0.19,0a1,1 0 0 0 0,-2z"/>
   <path id="svg_39" d="m17.64,41.5l-0.19,0.38c-0.58,1.15 1.15,2.16 1.72,1l0.19,-0.38c0.58,-1.15 -1.15,-2.16 -1.72,-1z"/>
   <path id="svg_40" d="m15.8,47.87l0,0.56a1,1 0 0 0 2,0l0,-0.56a1,1 0 0 0 -2,0z"/>
   <path id="svg_41" d="m14.34,49.43a1,1 0 0 0 0,-2a1,1 0 0 0 0,2z"/>
   <path id="svg_42" d="m14.34,41.31a1,1 0 0 0 0,-2a1,1 0 0 0 0,2z"/>
   <path id="svg_43" d="m17.13,36.47a2,2 0 0 0 1,-1.64a1,1 0 0 0 -2,0c0,-0.13 0.19,-0.2 0,-0.08c-1.15,0.58 -0.14,2.3 1,1.72z"/>
   <path id="svg_44" d="m17.37,31.29a1,1 0 0 0 0,-2a1,1 0 0 0 0,2z"/>
   <path id="svg_45" d="m18.12,28.46a1,1 0 0 0 0,-2a1,1 0 0 0 0,2z"/>
   <path id="svg_46" d="m19,24.94l0.19,-0.38c0.58,-1.15 -1.15,-2.16 -1.72,-1l-0.19,0.38c-0.58,1.15 1.15,2.16 1.72,1z"/>
   <path id="svg_47" d="m17.93,16a1,1 0 0 0 0,-2a1,1 0 0 0 0,2z"/>
   <path id="svg_48" d="m24.64,16.05l0.57,0.94a1,1 0 0 0 1.72,-1l-0.56,-0.99a1,1 0 0 0 -1.73,1l0,0.05z"/>
   <path id="svg_49" d="m34.88,29.72l0,0.19a1,1 0 0 0 2,0l0,-0.19a1,1 0 0 0 -2,0z"/>
   <path id="svg_50" d="m24,39.23a1,1 0 0 0 0,-2a1,1 0 0 0 0,2z"/>
   <path id="svg_51" d="m22.85,29a1,1 0 0 0 0,-2a1,1 0 0 0 0,2z"/>
   <path id="svg_52" d="m18.24,21.9l0.57,-0.56c0.93,-0.89 -0.48,-2.3 -1.41,-1.41l-0.58,0.56c-0.93,0.89 0.49,2.3 1.42,1.41z"/>
  </pattern>
 </defs>
 <title>contact us</title>
 <g>
  <title>Layer 1</title>
  <ellipse id="svg_95" opacity="0.1" fill="#000000" ry="8.86" rx="548" cy="493.13" cx="548"/>
  <ellipse id="svg_96" opacity="0.1" fill="#000000" ry="8.86" rx="548" cy="565.88" cx="548"/>
  <circle id="svg_132" fill="#e5e5e5" r="99.96" cy="238.18" cx="779.73"/>
  <path id="svg_134" opacity="0.1" d="m779.73,138.23a100,100 0 1 0 99.95,99.95a100,100 0 0 0 -99.95,-99.95zm0,186.62a86.67,86.67 0 1 1 86.67,-86.67a86.67,86.67 0 0 1 -86.67,86.67z"/>
  <circle id="svg_135" fill="#e5e5e5" r="99.96" cy="390.01" cx="550.08"/>
  <path id="svg_136" fill="#000000" d="m606.93,359.81l-29.93,30.45a0.54,0.54 0 0 0 0,0.78l21,22.33a3.62,3.62 0 0 1 -2.55,6.17a3.64,3.64 0 0 1 -2.56,-1.06l-20.89,-22.25a0.57,0.57 0 0 0 -0.8,0l-5.09,5.14a22.37,22.37 0 0 1 -16,6.73a22.86,22.86 0 0 1 -16.28,-6.92l-4.89,-5a0.57,0.57 0 0 0 -0.8,0l-20.84,22.2a3.61,3.61 0 0 1 -5.11,0a3.6,3.6 0 0 1 0,-5.11l20.92,-22.28a0.6,0.6 0 0 0 0,-0.78l-29.93,-30.45a0.55,0.55 0 0 0 -0.94,0.39l0,60.93a8.92,8.92 0 0 0 8.89,8.89l97.87,0a8.92,8.92 0 0 0 8.89,-8.89l0,-60.88a0.55,0.55 0 0 0 -0.96,-0.39z"/>
  <path id="svg_137" fill="#000000" d="m550.08,400.87a15.14,15.14 0 0 0 10.92,-4.5l43.59,-44.37a8.7,8.7 0 0 0 -5.5,-2l-97.94,0a8.64,8.64 0 0 0 -5.5,2l43.6,44.37a15.08,15.08 0 0 0 10.83,4.5z"/>
  <path id="svg_138" opacity="0.1" d="m548.82,290.06a100,100 0 1 0 99.95,99.95a100,100 0 0 0 -99.95,-99.95zm0,186.62a86.67,86.67 0 1 1 86.67,-86.67a86.67,86.67 0 0 1 -86.67,86.67z"/>
  <circle id="svg_139" fill="#e5e5e5" r="99.96" cy="315.36" cx="312.85"/>
  <path id="svg_141" opacity="0.1" d="m312.85,215.37a100,100 0 1 0 99.95,100a100,100 0 0 0 -99.95,-100zm0,186.62a86.67,86.67 0 1 1 86.67,-86.62a86.67,86.67 0 0 1 -86.67,86.66l0,-0.04z"/>
  <path id="svg_222" d="m426.86101,227.40467c3.38169,-11.07253 8.01029,-20.44981 12.40082,-25.12331c4.70374,-5.0069 2.61685,-7.17874 -2.23544,-2.32644c-2.04142,2.0414 -2.62468,0.55912 -2.62468,-6.67031c0,-17.24884 8.94147,-27.92193 30.45512,-36.35304c18.20374,-7.13401 31.62454,-15.15666 37.18909,-22.23083l4.53442,-5.76461l0,10.02985c0,12.40205 -3.84773,31.13855 -8.10682,39.47611c-4.51813,8.84469 -20.00458,25.17068 -27.60404,29.10051c-6.80844,3.5208 -21.34907,4.5573 -29.12036,2.0758c-3.87275,-1.23662 -5.10184,-0.29178 -7.1085,5.46452c-1.33437,3.82779 -2.42614,9.27341 -2.42614,12.10134c0,3.21048 -1.28764,5.14168 -3.42824,5.14168c-2.54239,0 -3.03986,-1.27162 -1.92523,-4.92126l0,0z" stroke="null" fill="#000000"/>
  <path transform="rotate(-90 822.576 408.979)" id="svg_223" d="m790.13435,447.31755c2.77188,-9.07584 6.56581,-16.76214 10.1646,-20.59287c3.85552,-4.10402 2.14496,-5.88421 -1.83233,-1.90692c-1.67329,1.67328 -2.15138,0.4583 -2.15138,-5.46747c0,-14.13839 7.32907,-22.88682 24.9632,-29.79757c14.92109,-5.84755 25.92175,-12.42349 30.48286,-18.22199l3.71674,-4.72509l0,8.22118c0,10.16562 -3.15388,25.5234 -6.64493,32.35746c-3.70339,7.24975 -16.3972,20.6317 -22.62626,23.85287c-5.58068,2.8859 -17.49924,3.73549 -23.86914,1.70148c-3.17439,-1.01362 -4.18184,-0.23916 -5.82664,4.47911c-1.09375,3.13753 -1.98864,7.60115 -1.98864,9.91913c0,2.63154 -1.05544,4.21449 -2.81003,4.21449c-2.08393,0 -2.49169,-1.04231 -1.57805,-4.03382l0,0z" stroke="null" fill="#000000"/>
  <path transform="rotate(-130.493 133.231 310.864)" id="svg_225" d="m92.28602,359.25166c3.49838,-11.45461 8.2867,-21.15547 12.82873,-25.99023c4.86605,-5.17968 2.70715,-7.42645 -2.31258,-2.40672c-2.11186,2.11185 -2.71525,0.57841 -2.71525,-6.90048c0,-17.84405 9.25001,-28.88542 31.50602,-37.60747c18.83189,-7.38018 32.7158,-15.67967 38.47237,-22.99795l4.69089,-5.96352l0,10.37594c0,12.83001 -3.9805,32.21305 -8.38656,40.83831c-4.67404,9.14989 -20.69488,26.03924 -28.55656,30.10467c-7.04337,3.64229 -22.08576,4.71456 -30.12521,2.14743c-4.00639,-1.27929 -5.27789,-0.30185 -7.35379,5.65308c-1.38042,3.95987 -2.50986,9.5934 -2.50986,12.51891c0,3.32127 -1.33207,5.3191 -3.54654,5.3191c-2.63012,0 -3.14476,-1.3155 -1.99166,-5.09108l0,0z" stroke="null" fill="#000000"/>
  <path id="svg_226" d="m363.48282,315.21551c-4.92744,-0.82876 -10.05592,-1.37443 -14.22024,-1.52213l-0.7344,-0.02462c0.16821,-0.36925 0.2954,-0.61952 0.33643,-0.65644c0.09026,-0.07385 0.16411,-0.38566 0.17232,-0.68927c0,-0.16821 0.07385,-0.71388 0.18873,-1.43597c1.12826,0.04103 2.62578,0.07385 4.25869,0.08616c6.30597,0.04923 12.90325,0.55798 17.42861,1.35802c2.69553,0.47592 3.58583,0.45951 1.59598,-0.02462c-2.01447,-0.48823 -7.98811,-1.20622 -12.74734,-1.51803c-3.19607,-0.21745 -7.77887,-0.2995 -10.4785,-0.25437c0.07795,-0.46772 0.16821,-0.98877 0.26258,-1.52213c0.38156,-2.0637 0.50874,-4.13971 0.51695,-8.27121c0.00821,-6.40854 -0.33643,-8.17274 -2.42474,-12.41091c-0.84928,-1.73137 -1.80933,-3.20017 -2.97041,-4.52947c1.01339,-2.99093 0.98877,-7.62297 -0.06154,-11.68472c-0.86569,-3.33146 -1.16929,-3.5448 -4.18894,-2.90477c-2.56014,0.54567 -4.61153,1.28827 -7.24141,2.61347c-1.24314,0.62773 -2.9581,1.60419 -4.20125,2.37141c-3.2412,-1.14057 -6.59317,-1.89548 -10.17079,-2.30166c-3.62686,-0.41028 -12.51758,-0.18052 -15.67262,0.40207c-3.08529,0.57029 -5.86287,1.26776 -8.37788,2.09652c-1.25545,-0.77543 -3.07709,-1.82163 -4.37767,-2.47808c-2.64219,-1.3293 -4.69358,-2.0678 -7.26192,-2.61347c-3.01144,-0.64414 -3.32325,-0.42669 -4.18484,2.90477c-1.06672,4.11509 -1.07493,8.82508 -0.02051,11.8078c0.12308,0.34053 0.19693,0.58259 0.22565,0.77132c-4.2751,5.38285 -5.67004,11.40573 -4.74281,19.81233c0.24206,2.19088 0.61542,4.20125 1.13647,6.0434c-2.72835,-0.01641 -6.60958,0.08206 -9.41178,0.26258c-4.76743,0.31591 -10.74108,1.0257 -12.75555,1.51393c-1.98575,0.48413 -1.10365,0.50054 1.59598,0.02872c4.52537,-0.79594 11.12674,-1.31289 17.42861,-1.35802c1.18981,-0.0041 2.30166,-0.02872 3.25761,-0.05334c0.28719,0.97236 0.61542,1.89959 0.98877,2.78169l-0.02872,0.0041c-4.16432,0.1436 -9.2887,0.68927 -14.21614,1.51803c-3.69661,0.61952 -9.1533,1.85856 -9.78923,2.2155c-0.66875,0.37335 -0.12308,0.2913 2.74066,-0.43489c5.22284,-1.3211 12.01294,-2.33448 20.42364,-3.04016l0.93954,-0.08206c1.80522,4.19304 4.58691,7.39321 8.51737,9.8877c2.40423,1.53034 6.25674,3.1017 8.19736,3.34787c0.53336,0.06564 2.08421,0.38566 3.44634,0.70568c1.36623,0.32002 4.03714,0.80004 5.93262,1.07493l0.04513,0c-0.03693,0.02462 -0.06975,0.04103 -0.10257,0.06564c-2.29756,1.19391 -3.79097,3.05247 -4.79615,5.97775c-0.45131,0.13539 -1.01339,0.32002 -1.6206,0.52926c-2.17037,0.7385 -3.01554,0.8903 -5.21463,0.90671c-2.28115,0.01641 -2.82271,-0.08206 -4.18484,-0.72209c-1.98164,-0.92313 -3.82789,-2.62168 -5.05873,-4.64845c-2.05549,-3.3889 -5.6085,-5.78492 -8.57071,-5.78492c-2.53142,0 -3.01144,1.0257 -1.1816,2.52321c2.75707,2.25243 4.81666,4.54998 5.66184,6.30597c0.47592,0.98467 1.20622,2.5068 1.6288,3.38069c0.4472,0.93133 1.40315,2.19499 2.31397,3.06888c2.14165,2.04318 4.20945,3.01965 7.29474,3.47916c2.0678,0.30361 2.57655,0.30361 5.0177,-0.00821c1.1775,-0.1436 2.17037,-0.31181 3.06067,-0.52105c0,1.00108 0,2.15396 0,3.50788c0,7.24551 -0.08616,9.57589 -0.37335,10.25695c-0.54157,1.29648 -1.75599,2.62988 -2.93759,3.22889c-1.1775,0.59901 -1.54265,1.25955 -1.04621,1.86677c0.27489,0.32822 0.80415,0.38566 2.58065,0.27078c3.37249,-0.20924 5.7562,-1.45649 6.97062,-3.65558c0.38976,-0.70568 0.48003,-2.12524 0.60311,-9.51025c0.13129,-8.01273 0.18873,-8.78405 0.70978,-9.92873c0.31591,-0.68106 0.77132,-1.41956 1.0257,-1.6206c0.42669,-0.35284 0.45541,0.34463 0.45541,9.92873c-0.0041,10.57697 -0.11078,11.85293 -1.16929,13.88791c-0.23796,0.46361 -0.68927,1.06672 -1.00518,1.35392c-0.55388,0.50464 -0.78773,1.79702 -0.40207,2.18678c0.63593,0.63183 3.82379,-0.36104 5.56337,-1.73137c2.96221,-2.34679 3.31505,-4.28741 3.33966,-18.30251l0.01231,-8.22197l0.89851,0.08616l0.89851,0.08206l0.1477,10.75339c0.16821,12.10731 0.19283,12.28373 2.25243,14.62231c1.16929,1.3211 2.34679,2.05139 4.26279,2.62168c2.56424,0.77132 3.33556,-0.41848 1.61239,-2.48218c-1.87497,-2.24422 -1.96523,-3.1017 -1.86266,-16.38651c0.06975,-8.51737 0.06975,-8.51737 0.61952,-8.02094c1.15698,1.05031 1.37853,2.77348 1.37853,10.76159c0,9.92052 0.28309,10.86416 3.78687,12.59554c1.63701,0.80004 2.09652,0.89851 4.19304,0.90671c2.23191,0.00821 2.3673,-0.02462 2.44936,-0.60721c0.06975,-0.47182 -0.20514,-0.79184 -1.24725,-1.42777c-1.36623,-0.84107 -2.31397,-1.916 -2.90887,-3.26992c-0.22565,-0.52105 -0.37746,-3.93457 -0.48003,-10.96263c-0.1477,-9.81795 -0.18052,-10.26516 -0.79184,-11.8037c-0.82466,-2.0678 -2.08421,-3.70071 -3.68019,-4.78384c-0.41438,-0.27078 -0.82876,-0.49644 -1.36623,-0.66465c0.66055,-0.06564 1.30058,-0.13539 1.9201,-0.22565c6.44957,-0.85748 9.85898,-1.57137 12.59554,-2.62988c5.78902,-2.22781 9.70308,-5.92852 11.82421,-11.17597c0.18873,-0.46772 0.37746,-0.91082 0.53746,-1.26776l1.63291,0.13539c8.4148,0.70978 15.20491,1.72317 20.42775,3.04837c2.86374,0.72619 3.40941,0.81235 2.74066,0.43079c-0.62362,-0.34874 -6.08032,-1.58367 -9.77282,-2.20319zm-24.67412,-0.12719c-0.95595,2.10062 -3.62276,4.80025 -5.77672,5.85877c-2.12524,1.05031 -5.4567,1.85035 -9.23126,2.23191c-2.58065,0.26258 -16.9732,0.34053 -19.34871,0.10667c-7.86503,-0.77132 -12.27142,-2.28525 -15.52082,-5.3172c-3.07709,-2.88015 -4.51306,-6.7901 -4.26279,-11.60266c0.16001,-3.01144 0.8862,-4.90282 2.78579,-7.20038c1.72727,-2.09242 3.5448,-3.38479 5.68645,-4.04124c1.79292,-0.54977 7.29474,-0.59901 14.69206,-0.12308c3.26992,0.20924 5.97365,0.20924 9.23946,0c7.73784,-0.48823 12.90325,-0.43489 14.81104,0.15591c2.99913,0.92723 5.73158,3.42172 7.3727,6.74497c0.7385,1.48521 0.8821,2.11703 0.98877,4.41049c0.1477,3.15914 -0.39797,6.51522 -1.43597,8.77585zm-39.01745,-13.56379c-4.40228,-0.77132 -6.91729,6.76549 -3.5407,10.61389c1.60419,1.82574 3.02785,2.12524 4.80846,1.01749c1.64932,-1.0298 2.54372,-2.954 2.54372,-5.44849c0,-3.32736 -1.51393,-5.77261 -3.81148,-6.18289zm26.72141,0.45131c-4.40228,-0.77132 -6.92139,6.75728 -3.5448,10.60979c1.60829,1.82574 3.02785,2.12934 4.81256,1.01339c1.64522,-1.0257 2.54372,-2.954 2.54372,-5.44849c0,-3.31505 -1.51393,-5.76851 -3.81148,-6.17469zm-11.84063,14.81924c-0.09436,0.30361 -0.55388,0.75491 -1.01749,0.99698c-1.1734,0.60311 -2.01857,0.39387 -3.25761,-0.7344c-0.76722,-0.69337 -1.11596,-1.05852 -1.34981,-0.33233c-0.21745,0.67286 1.14878,2.02267 2.20319,2.43705c0.96826,0.38566 1.66163,0.39797 2.71194,-0.04103c1.04211,-0.43489 1.95292,-1.60419 1.95292,-2.3632c0,-0.70568 -1.01339,-0.67286 -1.24314,0.03693zm-1.30058,-2.3591c0.66875,-0.5908 0.82056,-1.80522 0.18052,-2.44936s-1.94062,-0.54567 -2.44936,0.17642c-0.5908,0.84517 -0.27489,1.48931 0.1477,2.17447c0.65644,0.50874 1.53854,0.61131 2.12114,0.09847z" fill="#000000"/>
  <text stroke-width="20" xml:space="preserve" text-anchor="start" font-family="'Urbanist'" font-size="30" id="svg_227" y="246.52817" x="713.01668" fill="#000000">Instagram</text>
 </g>
</svg>