<svg width="602" height="437" xmlns="http://www.w3.org/2000/svg" data-name="Layer 1">
 <g id="Layer_1">
  <title>Layer 1</title>
  <path id="svg_1" d="m300.99999,97.22175c-69.03881,0 -124.99998,55.96447 -124.99998,125.00003c0,69.03911 55.96117,124.99997 124.99998,124.99997c69.03558,0 125.00002,-55.96086 125.00002,-124.99997c0,-69.03556 -55.96443,-125.00003 -125.00002,-125.00003zm11.42078,196.99497l-23.28107,0l0,-22.32607l23.28107,0l0,22.32607zm0,-46.16471l0,7.37859l-23.28107,0l0,-9.09139c0,-27.43429 31.2204,-31.78785 31.2204,-51.28635c0,-8.89093 -7.94939,-15.70162 -18.35635,-15.70162c-10.78412,0 -20.24269,7.94602 -20.24269,7.94602l-13.25458,-16.46995c0,0 13.06436,-13.62517 35.58057,-13.62517c21.38813,0 41.24697,13.24469 41.24697,35.57403c0.00998,31.23693 -32.91325,34.83928 -32.91325,55.27584l0,0.00001z" stroke-width="10" fill="#000000"/>
  <path id="svg_2" d="m111.52633,296.76669c0,-3.8003 3.07825,-6.87855 6.87855,-6.87855c3.8003,0 6.87854,3.07825 6.87854,6.87855c0,3.8003 -3.07824,6.87855 -6.87854,6.87855c-3.8003,0 -6.87855,-3.07825 -6.87855,-6.87855zm23.12685,19.47068l0,-3.47386c0,-3.65501 -2.96132,-6.61846 -6.61846,-6.61846l-19.281,0c-3.65501,0 -6.61845,2.96344 -6.61845,6.61846l0,3.47386c-0.00639,0.07885 -0.01066,0.15984 -0.01066,0.24189l0,20.00882c0,1.55471 1.25955,2.81425 2.81426,2.81425c1.55258,0 2.81532,-1.25954 2.81532,-2.81425l0,-19.71258l1.88718,0l0,22.52896l0.01385,0l0,31.83274c0,2.06939 1.68046,3.75091 3.75199,3.75091c2.07259,0 3.75199,-1.67939 3.75199,-3.75091l0,-31.83274l2.4754,0l0,31.83274c0,2.06939 1.6815,3.75091 3.75198,3.75091c2.07259,0 3.75198,-1.67939 3.75198,-3.75091l0,-31.83274l0.01172,0l0,-22.52896l1.88718,0l0,19.71151c0,1.55472 1.26273,2.81532 2.81532,2.81532c1.55473,0 2.81426,-1.2606 2.81426,-2.81532l0,-20.00881c-0.00106,-0.08311 -0.00746,-0.16197 -0.01385,-0.24083l0,0z" stroke-width="10" fill="#000000"/>
  <path id="svg_3" d="m493.83631,218.16165c4.86722,0 8.81756,-3.94761 8.81756,-8.81756c0,-4.87269 -3.95035,-8.82303 -8.81756,-8.82303c-4.87133,0 -8.82303,3.95035 -8.82303,8.82303c0,4.86995 3.95034,8.81756 8.82303,8.81756zm24.72963,38.02772l-7.91299,-29.34816c-0.07379,-0.26645 -0.17765,-0.52061 -0.30334,-0.75564c-0.89912,-2.74925 -3.4803,-4.74014 -6.5288,-4.74014l-20.02774,0c-3.17831,0 -5.84697,2.16169 -6.63265,5.09541c-0.05329,0.12844 -0.09702,0.26372 -0.13664,0.40309l-7.77225,29.34679c-0.51788,1.92392 0.62445,3.90115 2.55111,4.41903c1.92394,0.51514 3.90117,-0.62719 4.41905,-2.55112l6.10383,-23.05302l2.54292,0l-11.07765,41.71024l10.43817,0l0,28.79612c0,2.21498 1.79275,4.0091 4.01046,4.0091c2.21225,0 4.0091,-1.79276 4.0091,-4.0091l0,-28.79612l3.18925,0l0,28.79612c0,2.21498 1.79548,4.0091 4.01321,4.0091c2.21225,0 4.0091,-1.79276 4.0091,-4.0091l0,-28.79612l10.43268,0l-11.11863,-41.71024l2.60988,0l6.21587,23.05302c0.51788,1.92392 2.49511,3.06626 4.41903,2.55112c1.91984,-0.51788 3.06217,-2.49646 2.54703,-4.42039l0,0z" stroke-width="10" fill="#000000"/>
 </g>
</svg>